Coordinates
version=1
nRows=16
nColumns=40
inDegrees=yes

Units are S.I. units (second, meters, Newtons, ...)
If the header above contains a line with 'inDegrees', this indicates whether rotational values are in degrees (yes) or radians (no).

endheader
time	pelvis_tilt	pelvis_list	pelvis_rotation	pelvis_tx	pelvis_ty	pelvis_tz	hip_flexion_r	hip_adduction_r	hip_rotation_r	knee_angle_r	knee_angle_r_beta	ankle_angle_r	subtalar_angle_r	mtp_angle_r	hip_flexion_l	hip_adduction_l	hip_rotation_l	knee_angle_l	knee_angle_l_beta	ankle_angle_l	subtalar_angle_l	mtp_angle_l	lumbar_extension	lumbar_bending	lumbar_rotation	arm_flex_r	arm_add_r	arm_rot_r	elbow_flex_r	pro_sup_r	wrist_flex_r	wrist_dev_r	arm_flex_l	arm_add_l	arm_rot_l	elbow_flex_l	pro_sup_l	wrist_flex_l	wrist_dev_l
      2.31000000	    -34.05635887	      2.83595281	      6.05721006	     -0.44158477	      0.58737001	     -0.92567834	    103.39245615	    -20.31367565	     13.35664612	    107.63635078	      1.87860872	     39.25436275	      0.00000000	      0.00000000	    104.05447210	     -9.41530754	      4.52675751	    103.83133194	      1.81219861	     34.02986817	      0.00000000	      0.00000000	    -37.33311012	     -0.19537927	     -0.38125315	    -30.15933165	    -59.05749952	     29.94476030	    105.12135175	     88.09118213	      0.00000000	      0.00000000	     14.12207838	    -66.77100008	     73.12329460	    109.53036664	     88.11693626	      0.00000000	      0.00000000
      2.31500000	    -34.05301645	      2.87874926	      6.04733948	     -0.44142715	      0.58736483	     -0.92563618	    103.38164651	    -20.27876111	     13.41906688	    107.64629573	      1.87878229	     39.33556428	      0.00000000	      0.00000000	    104.02411848	     -9.44482632	      4.47261147	    103.84795937	      1.81248881	     34.07330388	      0.00000000	      0.00000000	    -37.39669971	     -0.17564584	     -1.50394878	    -27.44611653	    -59.87733017	     32.62799665	    105.13426642	     88.15524066	      0.00000000	      0.00000000	      8.66875263	    -67.07382002	     67.46572731	    109.74267845	     88.13469090	      0.00000000	      0.00000000
      2.32000000	    -34.00939217	      2.83715514	      6.08178390	     -0.44132881	      0.58744510	     -0.92572150	    103.31168249	    -20.33110160	     13.36911046	    107.65724186	      1.87897333	     39.37301086	      0.00000000	      0.00000000	    103.99391279	     -9.39046044	      4.51568014	    103.85550502	      1.81262051	     34.07826240	      0.00000000	      0.00000000	    -37.47170579	     -0.13612627	     -0.15518630	    -31.28283937	    -58.75198372	     28.58900757	    105.28839228	     88.14753632	      0.00000000	      0.00000000	     14.39389653	    -66.69187766	     73.21342214	    109.53720743	     88.13806569	      0.00000000	      0.00000000
      2.32500000	    -34.08039452	      2.84730513	      6.13904334	     -0.44137838	      0.58738726	     -0.92581811	    103.39920824	    -20.36661088	     13.41884737	    107.65921172	      1.87900771	     39.35249079	      0.00000000	      0.00000000	    104.05141758	     -9.32890729	      4.49124114	    103.82794478	      1.81213949	     34.07656023	      0.00000000	      0.00000000	    -37.40564206	     -0.11929544	     -0.22443596	    -31.24982053	    -58.75820066	     28.62959019	    105.26852199	     88.15226790	      0.00000000	      0.00000000	     14.30691003	    -66.71264101	     73.13181504	    109.55244023	     88.13882037	      0.00000000	      0.00000000
      2.33000000	    -34.10310591	      2.78494727	      6.13059708	     -0.44125521	      0.58745441	     -0.92567162	    103.36649150	    -20.33480382	     13.34156386	    107.64368383	      1.87873670	     39.34115869	      0.00000000	      0.00000000	    104.09034884	     -9.34428291	      4.55713845	    103.82654368	      1.81211504	     34.01639119	      0.00000000	      0.00000000	    -37.37293115	     -0.03350743	     -1.18469159	    -28.48973813	    -59.61351194	     31.51732512	    105.17365418	     88.15614646	      0.00000000	      0.00000000	      9.90516485	    -66.97044385	     68.67494006	    109.69018230	     88.15410164	      0.00000000	      0.00000000
      2.33500000	    -34.10060779	      2.83972919	      6.09140703	     -0.44124564	      0.58752386	     -0.92561083	    103.36609777	    -20.26087122	     13.40353279	    107.63063497	      1.87850896	     39.39108782	      0.00000000	      0.00000000	    104.05773752	     -9.39056648	      4.51377506	    103.82325650	      1.81205767	     34.05712923	      0.00000000	      0.00000000	    -37.39705860	     -0.14053046	     -0.15466051	    -31.28584394	    -58.74558361	     28.59760012	    105.26672117	     88.14430935	      0.00000000	      0.00000000	     14.40047328	    -66.72914588	     73.23784954	    109.56782971	     88.13502686	      0.00000000	      0.00000000
      2.34000000	    -34.11073565	      2.86085346	      6.17264112	     -0.44122360	      0.58763397	     -0.92580137	    103.38494657	    -20.34822570	     13.45944979	    107.62908421	      1.87848189	     39.38475495	      0.00000000	      0.00000000	    104.03286000	     -9.29138071	      4.45930001	    103.78205825	      1.81133862	     34.04550637	      0.00000000	      0.00000000	    -37.39110943	     -0.10385668	     -0.23983395	    -31.29774790	    -58.75459135	     28.55838252	    105.30246816	     88.15288272	      0.00000000	      0.00000000	     14.39862537	    -66.71646323	     73.24255977	    109.57472313	     88.13280126	      0.00000000	      0.00000000
      2.34500000	    -34.11406950	      2.86734659	      6.19770054	     -0.44112813	      0.58778890	     -0.92583647	    103.36634030	    -20.36765516	     13.47016146	    107.61649395	      1.87826215	     39.38586458	      0.00000000	      0.00000000	    104.00970515	     -9.25859873	      4.44736069	    103.75911548	      1.81093819	     34.05716747	      0.00000000	      0.00000000	    -37.39265432	     -0.09093283	     -0.26682550	    -31.28406668	    -58.74980044	     28.56035896	    105.28290830	     88.15428778	      0.00000000	      0.00000000	     14.35928977	    -66.71753572	     73.19875098	    109.57864724	     88.13605797	      0.00000000	      0.00000000
      2.35000000	    -34.11569680	      2.83209623	      6.18301180	     -0.44106599	      0.58789352	     -0.92571684	    103.32398927	    -20.33016242	     13.42198631	    107.60073660	      1.87798713	     39.43252499	      0.00000000	      0.00000000	    104.01260981	     -9.28590652	      4.47797530	    103.75075725	      1.81079232	     34.06495992	      0.00000000	      0.00000000	    -37.41201904	     -0.05544482	     -0.48076235	    -30.77529608	    -58.94080572	     29.03977885	    105.32203860	     88.14514247	      0.00000000	      0.00000000	     13.01955520	    -66.80104294	     71.77690583	    109.62217467	     88.14446929	      0.00000000	      0.00000000
      2.35500000	    -34.25112022	      2.83794734	      6.17378207	     -0.44130128	      0.58775656	     -0.92563764	    103.47523032	    -20.27189860	     13.45343514	    107.56982578	      1.87744764	     39.42116669	      0.00000000	      0.00000000	    104.14849468	     -9.29355366	      4.47068543	    103.71269780	      1.81012805	     34.04315967	      0.00000000	      0.00000000	    -37.25108299	     -0.08303009	     -0.61291736	    -30.48002590	    -59.03782829	     29.34838082	    105.33914614	     88.15399216	      0.00000000	      0.00000000	     12.41522812	    -66.87653809	     71.20363264	    109.69438299	     88.13618163	      0.00000000	      0.00000000
      2.36000000	    -34.27552027	      2.86428416	      6.17579737	     -0.44128986	      0.58794281	     -0.92561734	    103.48611973	    -20.24796830	     13.48441717	    107.53578109	      1.87685344	     39.37945438	      0.00000000	      0.00000000	    104.13111751	     -9.29036676	      4.44058207	    103.67011611	      1.80938486	     34.02895881	      0.00000000	      0.00000000	    -37.21831424	     -0.13118581	     -0.21011302	    -31.46422891	    -58.69982808	     28.36179214	    105.33294640	     88.15160158	      0.00000000	      0.00000000	     14.44005319	    -66.75187742	     73.31141331	    109.59411916	     88.13236297	      0.00000000	      0.00000000
      2.36500000	    -34.23490425	      2.85058473	      6.27337760	     -0.44116687	      0.58819568	     -0.92581133	    103.41739620	    -20.36687055	     13.48681397	    107.53138978	      1.87677680	     39.33775612	      0.00000000	      0.00000000	    104.06763581	     -9.17625060	      4.42801278	    103.64019689	      1.80886267	     33.98921863	      0.00000000	      0.00000000	    -37.29359948	     -0.02710569	     -0.54748052	    -31.01535864	    -58.88999190	     28.74032465	    105.39331991	     88.15498976	      0.00000000	      0.00000000	     12.87743651	    -66.83754650	     71.64275844	    109.67202051	     88.13447828	      0.00000000	      0.00000000
      2.37000000	    -34.31972107	      2.94139358	      6.23983888	     -0.44121800	      0.58832460	     -0.92570476	    103.52923940	    -20.29080458	     13.59673888	    107.49419017	      1.87612755	     39.30264018	      0.00000000	      0.00000000	    104.08352909	     -9.21558143	      4.33362594	    103.59028496	      1.80799155	     34.00640947	      0.00000000	      0.00000000	    -37.15928219	     -0.14258442	     -1.20390838	    -28.95821442	    -59.44346061	     30.96820154	    105.22901158	     88.15578935	      0.00000000	      0.00000000	     10.62183533	    -67.03053936	     69.48380915	    109.75037360	     88.14170079	      0.00000000	      0.00000000
      2.37500000	    -34.30423917	      2.92150950	      6.26304674	     -0.44116910	      0.58857753	     -0.92570705	    103.46874716	    -20.31412601	     13.55583622	    107.46190266	      1.87556402	     39.35587827	      0.00000000	      0.00000000	    104.04707307	     -9.18561038	      4.34802820	    103.55295082	      1.80733994	     34.02134411	      0.00000000	      0.00000000	    -37.18516366	     -0.13360688	     -0.35722663	    -31.30860326	    -58.71921025	     28.49709994	    105.31044621	     88.15329470	      0.00000000	      0.00000000	     14.30469322	    -66.77362917	     73.22056841	    109.58546135	     88.12984967	      0.00000000	      0.00000000
      2.38000000	    -34.26036622	      2.93479483	      6.28167439	     -0.44105522	      0.58893986	     -0.92570024	    103.38987674	    -20.33153357	     13.56021529	    107.43762332	      1.87514027	     39.34556704	      0.00000000	      0.00000000	    103.95264284	     -9.16389930	      4.32330884	    103.50928803	      1.80657788	     34.01109166	      0.00000000	      0.00000000	    -37.27429796	     -0.11309709	     -0.58577547	    -30.93381467	    -58.87191556	     28.78383154	    105.35938084	     88.16238938	      0.00000000	      0.00000000	     13.04531616	    -66.84169243	     71.79634612	    109.66435025	     88.14173790	      0.00000000	      0.00000000
      2.38500000	    -34.32214614	      2.90275604	      6.28842225	     -0.44104842	      0.58914897	     -0.92556217	    103.40472664	    -20.30603261	     13.52123579	    107.38893006	      1.87429041	     39.28997854	      0.00000000	      0.00000000	    103.99897939	     -9.18363566	      4.33152209	    103.45790820	      1.80568114	     33.94960046	      0.00000000	      0.00000000	    -37.15580511	     -0.09797420	     -1.07109328	    -29.25300760	    -59.32616624	     30.67545266	    105.23769071	     88.14883009	      0.00000000	      0.00000000	     11.36153344	    -66.99997803	     70.21712651	    109.70925369	     88.13067971	      0.00000000	      0.00000000
